<mxfile host="app.diagrams.net" modified="2024-04-12T12:42:11.967Z" agent="Mozilla/5.0 (Windows NT 10.0; Win64; x64) AppleWebKit/537.36 (KHTML, like Gecko) Chrome/123.0.0.0 Safari/537.36" etag="BcxW6RA5qqP2F87xUzId" version="24.2.3" type="device">
  <diagram name="Page-1" id="6KouOvmad2t47FQapQHt">
    <mxGraphModel dx="1444" dy="811" grid="1" gridSize="10" guides="1" tooltips="1" connect="1" arrows="1" fold="1" page="1" pageScale="1" pageWidth="827" pageHeight="1169" math="0" shadow="0">
      <root>
        <mxCell id="0" />
        <mxCell id="1" parent="0" />
        <mxCell id="pzROecRK_iY43SsR-PU8-1" value="" style="image;points=[];aspect=fixed;html=1;align=center;shadow=0;dashed=0;image=img/lib/allied_telesis/computer_and_terminals/Personal_Computer.svg;" parent="1" vertex="1">
          <mxGeometry x="559.4" y="15.79" width="85.6" height="116.01" as="geometry" />
        </mxCell>
        <mxCell id="pzROecRK_iY43SsR-PU8-2" value="" style="shape=actor;whiteSpace=wrap;html=1;" parent="1" vertex="1">
          <mxGeometry x="260" y="20" width="90" height="111.8" as="geometry" />
        </mxCell>
        <mxCell id="HbLU7mzYQEfm_n9d17IP-1" style="edgeStyle=orthogonalEdgeStyle;rounded=0;orthogonalLoop=1;jettySize=auto;html=1;exitX=0.5;exitY=1;exitDx=0;exitDy=0;entryX=0.5;entryY=0;entryDx=0;entryDy=0;" edge="1" parent="1" source="pzROecRK_iY43SsR-PU8-3" target="pzROecRK_iY43SsR-PU8-6">
          <mxGeometry relative="1" as="geometry" />
        </mxCell>
        <mxCell id="pzROecRK_iY43SsR-PU8-3" value="&lt;font style=&quot;font-size: 16px;&quot;&gt;Top 5 Food Items&lt;/font&gt;" style="rounded=0;whiteSpace=wrap;html=1;fillColor=none;" parent="1" vertex="1">
          <mxGeometry x="500" y="390" width="230" height="100" as="geometry" />
        </mxCell>
        <mxCell id="pzROecRK_iY43SsR-PU8-14" style="edgeStyle=orthogonalEdgeStyle;rounded=0;orthogonalLoop=1;jettySize=auto;html=1;exitX=0.5;exitY=1;exitDx=0;exitDy=0;" parent="1" source="pzROecRK_iY43SsR-PU8-6" target="pzROecRK_iY43SsR-PU8-1" edge="1">
          <mxGeometry relative="1" as="geometry">
            <mxPoint x="970" y="448.2222493489583" as="targetPoint" />
            <Array as="points">
              <mxPoint x="615" y="720" />
              <mxPoint x="970" y="720" />
              <mxPoint x="970" y="74" />
            </Array>
            <mxPoint x="615" y="810" as="sourcePoint" />
          </mxGeometry>
        </mxCell>
        <mxCell id="pzROecRK_iY43SsR-PU8-6" value="" style="rounded=0;whiteSpace=wrap;html=1;fillColor=none;" parent="1" vertex="1">
          <mxGeometry x="500" y="550" width="230" height="100" as="geometry" />
        </mxCell>
        <mxCell id="pzROecRK_iY43SsR-PU8-7" value="" style="endArrow=classic;html=1;rounded=0;" parent="1" edge="1">
          <mxGeometry width="50" height="50" relative="1" as="geometry">
            <mxPoint x="360" y="70" as="sourcePoint" />
            <mxPoint x="540" y="70" as="targetPoint" />
          </mxGeometry>
        </mxCell>
        <mxCell id="pzROecRK_iY43SsR-PU8-8" value="" style="endArrow=classic;html=1;rounded=0;" parent="1" edge="1">
          <mxGeometry width="50" height="50" relative="1" as="geometry">
            <mxPoint x="540" y="110" as="sourcePoint" />
            <mxPoint x="360" y="110" as="targetPoint" />
          </mxGeometry>
        </mxCell>
        <mxCell id="pzROecRK_iY43SsR-PU8-9" value="" style="endArrow=classic;html=1;rounded=0;entryX=0.5;entryY=0;entryDx=0;entryDy=0;" parent="1" target="Zy4DOX1l92XCPpvEqE9B-1" edge="1">
          <mxGeometry width="50" height="50" relative="1" as="geometry">
            <mxPoint x="615" y="150" as="sourcePoint" />
            <mxPoint x="630" y="210" as="targetPoint" />
          </mxGeometry>
        </mxCell>
        <mxCell id="pzROecRK_iY43SsR-PU8-15" value="&lt;font style=&quot;font-size: 16px;&quot;&gt;Input&lt;/font&gt;" style="text;html=1;align=center;verticalAlign=middle;resizable=0;points=[];autosize=1;strokeColor=none;fillColor=none;" parent="1" vertex="1">
          <mxGeometry x="410" y="38" width="60" height="30" as="geometry" />
        </mxCell>
        <mxCell id="pzROecRK_iY43SsR-PU8-16" value="&lt;font style=&quot;font-size: 15px;&quot;&gt;Output&lt;/font&gt;" style="text;html=1;align=center;verticalAlign=middle;resizable=0;points=[];autosize=1;strokeColor=none;fillColor=none;" parent="1" vertex="1">
          <mxGeometry x="405" y="128" width="70" height="30" as="geometry" />
        </mxCell>
        <mxCell id="pzROecRK_iY43SsR-PU8-17" value="&lt;font style=&quot;font-size: 16px;&quot;&gt;Output&lt;/font&gt;" style="text;html=1;align=center;verticalAlign=middle;resizable=0;points=[];autosize=1;strokeColor=none;fillColor=none;" parent="1" vertex="1">
          <mxGeometry x="785" y="690" width="70" height="30" as="geometry" />
        </mxCell>
        <mxCell id="pzROecRK_iY43SsR-PU8-22" value="&lt;font style=&quot;font-size: 21px;&quot;&gt;&lt;b&gt;Input Includes:&lt;/b&gt;&lt;br&gt;&lt;/font&gt;&lt;font style=&quot;font-size: 16px;&quot;&gt;Calories&lt;br&gt;Fat Content&lt;br&gt;Saturated Fat Content&lt;br&gt;Cholesterol Content&lt;br&gt;Sodium Content&lt;br&gt;Carbohydrate Content&lt;br&gt;Fiber Content&lt;br&gt;Sugar Content&lt;br&gt;Protein Content&lt;/font&gt;" style="text;html=1;align=center;verticalAlign=middle;resizable=0;points=[];autosize=1;strokeColor=none;fillColor=none;" parent="1" vertex="1">
          <mxGeometry x="430" y="750" width="180" height="210" as="geometry" />
        </mxCell>
        <mxCell id="Zy4DOX1l92XCPpvEqE9B-1" value="&lt;font style=&quot;font-size: 16px;&quot;&gt;Prediction&lt;/font&gt;" style="rounded=0;whiteSpace=wrap;html=1;fillColor=none;" parent="1" vertex="1">
          <mxGeometry x="500" y="230" width="230" height="100" as="geometry" />
        </mxCell>
        <mxCell id="Zy4DOX1l92XCPpvEqE9B-3" value="&lt;span style=&quot;font-size: 16px;&quot;&gt;Preparation&lt;/span&gt;&lt;div&gt;&lt;span style=&quot;font-size: 16px;&quot;&gt;Guide&lt;/span&gt;&lt;/div&gt;" style="rounded=0;whiteSpace=wrap;html=1;fillColor=none;" parent="1" vertex="1">
          <mxGeometry x="620" y="570" width="97" height="60" as="geometry" />
        </mxCell>
        <mxCell id="Zy4DOX1l92XCPpvEqE9B-4" value="&lt;span style=&quot;font-size: 16px;&quot;&gt;Nutritional Value&lt;/span&gt;" style="rounded=0;whiteSpace=wrap;html=1;fillColor=none;" parent="1" vertex="1">
          <mxGeometry x="510" y="570" width="100" height="60" as="geometry" />
        </mxCell>
        <mxCell id="Zy4DOX1l92XCPpvEqE9B-5" value="" style="endArrow=classic;html=1;rounded=0;entryX=0.5;entryY=0;entryDx=0;entryDy=0;exitX=0.5;exitY=1;exitDx=0;exitDy=0;" parent="1" source="Zy4DOX1l92XCPpvEqE9B-1" target="pzROecRK_iY43SsR-PU8-3" edge="1">
          <mxGeometry width="50" height="50" relative="1" as="geometry">
            <mxPoint x="580" y="350" as="sourcePoint" />
            <mxPoint x="630" y="300" as="targetPoint" />
          </mxGeometry>
        </mxCell>
        <mxCell id="HbLU7mzYQEfm_n9d17IP-3" value="&lt;div style=&quot;&quot;&gt;&lt;b style=&quot;text-wrap: nowrap;&quot;&gt;&lt;font style=&quot;font-size: 18px;&quot;&gt;Output includes&lt;/font&gt;&lt;/b&gt;&lt;b style=&quot;text-wrap: nowrap; font-size: 16px;&quot;&gt;:&lt;/b&gt;&lt;/div&gt;&lt;span style=&quot;forced-color-adjust: none; color: rgb(0, 0, 0); font-family: Helvetica; font-style: normal; font-variant-ligatures: normal; font-variant-caps: normal; font-weight: 400; letter-spacing: normal; orphans: 2; text-indent: 0px; text-transform: none; widows: 2; word-spacing: 0px; -webkit-text-stroke-width: 0px; white-space: nowrap; background-color: rgb(251, 251, 251); text-decoration-thickness: initial; text-decoration-style: initial; text-decoration-color: initial; font-size: 16px;&quot;&gt;&lt;div style=&quot;&quot;&gt;Food Item with&amp;nbsp;&lt;/div&gt;&lt;div style=&quot;&quot;&gt;Nutritional value and&lt;/div&gt;&lt;div style=&quot;&quot;&gt;Preparation Guide&lt;/div&gt;&lt;/span&gt;" style="text;whiteSpace=wrap;html=1;align=center;" vertex="1" parent="1">
          <mxGeometry x="760" y="750" width="180" height="80" as="geometry" />
        </mxCell>
      </root>
    </mxGraphModel>
  </diagram>
</mxfile>
